<svg xmlns="http://www.w3.org/2000/svg" width="160" height="88" viewBox="0 0 160 88">
  <!--
    Downward chevron composed of 5×5 squares on an 8px grid (5px square + 3px gap).
    20 columns × 11 rows. The chevron is 3 squares thick for visual weight.
  -->

  <!-- Row 0 — outer top edges -->
  <rect x="0"   y="0" width="5" height="5" fill="black"/>
  <rect x="8"   y="0" width="5" height="5" fill="black"/>
  <rect x="16"  y="0" width="5" height="5" fill="black"/>
  <rect x="136" y="0" width="5" height="5" fill="black"/>
  <rect x="144" y="0" width="5" height="5" fill="black"/>
  <rect x="152" y="0" width="5" height="5" fill="black"/>

  <!-- Row 1 -->
  <rect x="8"   y="8" width="5" height="5" fill="black"/>
  <rect x="16"  y="8" width="5" height="5" fill="black"/>
  <rect x="24"  y="8" width="5" height="5" fill="black"/>
  <rect x="128" y="8" width="5" height="5" fill="black"/>
  <rect x="136" y="8" width="5" height="5" fill="black"/>
  <rect x="144" y="8" width="5" height="5" fill="black"/>

  <!-- Row 2 -->
  <rect x="16"  y="16" width="5" height="5" fill="black"/>
  <rect x="24"  y="16" width="5" height="5" fill="black"/>
  <rect x="32"  y="16" width="5" height="5" fill="black"/>
  <rect x="120" y="16" width="5" height="5" fill="black"/>
  <rect x="128" y="16" width="5" height="5" fill="black"/>
  <rect x="136" y="16" width="5" height="5" fill="black"/>

  <!-- Row 3 -->
  <rect x="24"  y="24" width="5" height="5" fill="black"/>
  <rect x="32"  y="24" width="5" height="5" fill="black"/>
  <rect x="40"  y="24" width="5" height="5" fill="black"/>
  <rect x="112" y="24" width="5" height="5" fill="black"/>
  <rect x="120" y="24" width="5" height="5" fill="black"/>
  <rect x="128" y="24" width="5" height="5" fill="black"/>

  <!-- Row 4 -->
  <rect x="32"  y="32" width="5" height="5" fill="black"/>
  <rect x="40"  y="32" width="5" height="5" fill="black"/>
  <rect x="48"  y="32" width="5" height="5" fill="black"/>
  <rect x="104" y="32" width="5" height="5" fill="black"/>
  <rect x="112" y="32" width="5" height="5" fill="black"/>
  <rect x="120" y="32" width="5" height="5" fill="black"/>

  <!-- Row 5 -->
  <rect x="40"  y="40" width="5" height="5" fill="black"/>
  <rect x="48"  y="40" width="5" height="5" fill="black"/>
  <rect x="56"  y="40" width="5" height="5" fill="black"/>
  <rect x="96"  y="40" width="5" height="5" fill="black"/>
  <rect x="104" y="40" width="5" height="5" fill="black"/>
  <rect x="112" y="40" width="5" height="5" fill="black"/>

  <!-- Row 6 -->
  <rect x="48"  y="48" width="5" height="5" fill="black"/>
  <rect x="56"  y="48" width="5" height="5" fill="black"/>
  <rect x="64"  y="48" width="5" height="5" fill="black"/>
  <rect x="88"  y="48" width="5" height="5" fill="black"/>
  <rect x="96"  y="48" width="5" height="5" fill="black"/>
  <rect x="104" y="48" width="5" height="5" fill="black"/>

  <!-- Row 7 -->
  <rect x="56"  y="56" width="5" height="5" fill="black"/>
  <rect x="64"  y="56" width="5" height="5" fill="black"/>
  <rect x="72"  y="56" width="5" height="5" fill="black"/>
  <rect x="80"  y="56" width="5" height="5" fill="black"/>
  <rect x="88"  y="56" width="5" height="5" fill="black"/>
  <rect x="96"  y="56" width="5" height="5" fill="black"/>

  <!-- Row 8 -->
  <rect x="64"  y="64" width="5" height="5" fill="black"/>
  <rect x="72"  y="64" width="5" height="5" fill="black"/>
  <rect x="80"  y="64" width="5" height="5" fill="black"/>
  <rect x="88"  y="64" width="5" height="5" fill="black"/>

  <!-- Row 9 — near tip -->
  <rect x="72"  y="72" width="5" height="5" fill="black"/>
  <rect x="80"  y="72" width="5" height="5" fill="black"/>

  <!-- Row 10 — tip -->
  <rect x="76"  y="80" width="5" height="5" fill="black"/>
</svg>
